PathFileType	4	(X/Y/Z)	/Users/itak/Documents/Research/Walk-IL/dataset/trc/00530_00183.trc
DataRate	CameraRate	NumFrames	NumMarkers	Units	OrigDataRate	OrigDataStartFrame	OrigNumFrames
100.000000	100.000000	4	53	mm	100.000000	114	457
Frame#	Time	RPSI			LPSI			L3			STRN			T10			C7			CLAV			RBAK			LBAK			LSHO			LUPA			LAEL			LAOL			LWTS			LFRA			LIFD			LHPS			LHTS			RSHO			RUPA			RAEL			RAOL			RWTS			RWPS			RFRA			RIFD			RHTS			RHPS			RBHD			LFHD			RFHD			LBHD			LHIP			RASI			LASI			LKNE			LTHI			LANK			LTIP			LTOE			LMT1			LMT5			LHEE			RKNE			RTHI			RANK			RTIP			RTOE			RMT1			RMT5			RHEE			LWPS			RHIP			
		X1	Y1	Z1	X2	Y2	Z2	X3	Y3	Z3	X4	Y4	Z4	X5	Y5	Z5	X6	Y6	Z6	X7	Y7	Z7	X8	Y8	Z8	X9	Y9	Z9	X10	Y10	Z10	X11	Y11	Z11	X12	Y12	Z12	X13	Y13	Z13	X14	Y14	Z14	X15	Y15	Z15	X16	Y16	Z16	X17	Y17	Z17	X18	Y18	Z18	X19	Y19	Z19	X20	Y20	Z20	X21	Y21	Z21	X22	Y22	Z22	X23	Y23	Z23	X24	Y24	Z24	X25	Y25	Z25	X26	Y26	Z26	X27	Y27	Z27	X28	Y28	Z28	X29	Y29	Z29	X30	Y30	Z30	X31	Y31	Z31	X32	Y32	Z32	X33	Y33	Z33	X34	Y34	Z34	X35	Y35	Z35	X36	Y36	Z36	X37	Y37	Z37	X38	Y38	Z38	X39	Y39	Z39	X40	Y40	Z40	X41	Y41	Z41	X42	Y42	Z42	X43	Y43	Z43	X44	Y44	Z44	X45	Y45	Z45	X46	Y46	Z46	X47	Y47	Z47	X48	Y48	Z48	X49	Y49	Z49	X50	Y50	Z50	X51	Y51	Z51	X52	Y52	Z52	X53	Y53	Z53	

115	1.14	-1166.794555664062	961.9412231445312	-436.0765075683594	-1099.843994140625	961.4365844726562	-540.9298095703125	-1127.930297851562	1040.145874023438	-496.5497131347656	-923.4769897460938	1190.917846679688	-389.8834838867188	-1135.98193359375	1146.814208984375	-499.0863342285156	-1083.559326171875	1373.168212890625	-469.6800537109375	-951.006591796875	1287.563110351562	-403.5452270507812	-1172.934814453125	1255.420166015625	-419.6086730957031	-1069.797119140625	1321.088623046875	-559.810791015625	-950.1072998046875	1362.120239257812	-581.8766479492188	-941.1990966796875	1238.57470703125	-647.896240234375	-929.6442260742188	1030.357177734375	-681.1316528320312	-1024.981689453125	1023.025634765625	-651.4925537109375	-871.2844848632812	840.1141357421875	-618.7138061523438	-916.688720703125	945.340576171875	-680.0404663085938	-867.5090942382812	684.17431640625	-620.3033447265625	-901.9806518554688	755.3016357421875	-680.8704223632812	-852.524169921875	765.2068481445312	-639.40234375	-1103.311401367188	1364.573852539062	-314.0048217773438	-1150.840454101562	1300.181274414062	-273.8678894042969	-1190.021728515625	1034.944946289062	-234.7708892822266	-1217.310668945312	1020.881103515625	-293.9984436035156	-1102.016967773438	830.815673828125	-203.9408721923828	-1190.983520507812	811.507080078125	-208.4242248535156	-1193.177856445312	980.4304809570312	-225.9975738525391	-1106.3642578125	671.311279296875	-196.0835113525391	-1106.606079101562	738.772216796875	-173.0395660400391	-1173.979125976562	736.9285278320312	-194.3763122558594	-1070.2431640625	1526.965942382812	-366.288330078125	-882.4268188476562	1571.28271484375	-421.2800903320312	-948.7338256835938	1563.578735351562	-312.6750183105469	-1000.890197753906	1534.321411132812	-509.5551452636719	-943.0096435546875	883.710693359375	-598.4633178710938	-1019.081604003906	918.8917846679688	-283.1448974609375	-896.17138671875	918.3063354492188	-491.9933166503906	-990.2898559570312	462.4126892089844	-548.8976440429688	-950.8783569335938	617.6693115234375	-564.6991577148438	-1128.087158203125	48.17380142211914	-567.5717163085938	-1034.251220703125	313.8595275878906	-561.3992309570312	-975.0634155273438	42.35640716552734	-427.1426086425781	-1058.963500976562	46.53027725219727	-431.4052734375	-1025.943481445312	43.97712326049805	-527.3076171875	-1197.498779296875	46.66188812255859	-531.8914184570312	-991.984130859375	505.9844665527344	-250.3936614990234	-1077.071411132812	750.5531005859375	-243.7949676513672	-1138.47412109375	103.1190795898438	-327.8876037597656	-1001.171936035156	364.2698974609375	-258.0838317871094	-952.61865234375	61.77852630615234	-270.8983764648438	-986.2125244140625	71.10192108154297	-335.5263061523438	-1052.531494140625	73.16193389892578	-263.594482421875	-1160.841064453125	108.0729904174805	-394.8677673339844	-923.9490356445312	808.4593505859375	-689.5565185546875	-1134.053955078125	871.5950317382812	-268.0484313964844	
116	1.15	-1164.485961914062	962.1586303710938	-434.8500366210938	-1097.746459960938	961.3888549804688	-539.8444213867188	-1125.288940429688	1040.313232421875	-495.6229248046875	-920.6777954101562	1190.665893554688	-389.1647338867188	-1133.470581054688	1146.992797851562	-498.8339538574219	-1080.361938476562	1373.21142578125	-468.9582824707031	-948.0255126953125	1287.388916015625	-402.7291870117188	-1170.108764648438	1255.623046875	-419.3355102539062	-1066.5400390625	1321.26611328125	-559.1864013671875	-946.7803955078125	1362.222045898438	-580.96826171875	-937.710693359375	1238.745727539062	-647.1067504882812	-926.3119506835938	1030.573852539062	-680.5806884765625	-1021.650817871094	1023.286193847656	-651.1428833007812	-868.52587890625	840.159423828125	-618.5861206054688	-913.51318359375	945.4557495117188	-679.6487426757812	-863.8237915039062	684.490234375	-621.1444702148438	-898.6571044921875	755.6231689453125	-681.2271728515625	-849.2108154296875	765.6475219726562	-639.7813720703125	-1100.52099609375	1364.40380859375	-313.3897399902344	-1148.43310546875	1300.098754882812	-273.6314697265625	-1189.58447265625	1035.069946289062	-235.6721649169922	-1216.415649414062	1021.334411621094	-295.2146606445312	-1102.991088867188	830.313232421875	-204.7545776367188	-1192.019653320312	811.5413818359375	-209.9658508300781	-1193.139770507812	980.5513305664062	-227.0998229980469	-1108.299194335938	670.8148803710938	-197.4149627685547	-1108.33447265625	738.2113647460938	-174.1474914550781	-1175.612915039062	736.8984375	-195.9240875244141	-1066.625610351562	1526.941650390625	-364.8633117675781	-878.5450439453125	1570.534790039062	-419.514404296875	-945.011962890625	1562.700317382812	-310.9645385742188	-997.0733032226562	1534.587890625	-508.0440673828125	-941.4022827148438	883.3218383789062	-598.0401000976562	-1016.059020996094	919.2234497070312	-282.6732482910156	-893.7854614257812	917.9632568359375	-491.8869323730469	-989.59814453125	462.1973571777344	-548.945068359375	-949.6900634765625	617.3766479492188	-564.550048828125	-1128.140014648438	48.18239974975586	-567.5835571289062	-1034.103393554688	313.83642578125	-561.5501098632812	-974.8932495117188	42.58366012573242	-427.2823181152344	-1059.039672851562	46.56008529663086	-431.5687866210938	-1025.881591796875	43.89979553222656	-527.406982421875	-1197.505615234375	46.68446731567383	-531.88818359375	-986.1712036132812	507.6466369628906	-248.5621337890625	-1073.419677734375	751.6593627929688	-242.4008483886719	-1127.126586914062	102.283935546875	-324.3659362792969	-993.42333984375	365.47412109375	-255.55029296875	-941.0526733398438	63.33883666992188	-266.1763916015625	-974.4248657226562	72.01412963867188	-331.040771484375	-1041.179565429688	73.76106262207031	-259.5119323730469	-1149.199584960938	106.4937210083008	-391.5431823730469	-921.1276245117188	808.6978759765625	-689.599853515625	-1130.843872070312	872.3844604492188	-266.6771545410156	
117	1.16	-1162.071044921875	962.3564453125	-433.5266723632812	-1095.549072265625	961.2817993164062	-538.6468505859375	-1122.541748046875	1040.432861328125	-494.5885925292969	-917.7403564453125	1190.375610351562	-388.3853149414062	-1130.815307617188	1147.106201171875	-498.4529113769531	-1077.0703125	1373.20361328125	-468.1309204101562	-944.9203491210938	1287.166259765625	-401.8656005859375	-1167.177612304688	1255.773315429688	-418.9330749511719	-1063.21044921875	1321.379272460938	-558.4479370117188	-943.3974609375	1362.274169921875	-580.00048828125	-934.2044677734375	1238.873291015625	-646.2760620117188	-922.9718017578125	1030.70751953125	-679.9370727539062	-1018.296325683594	1023.496765136719	-650.6622924804688	-865.5982666015625	840.2254028320312	-618.312744140625	-910.2905883789062	945.5653686523438	-679.1201782226562	-859.9118041992188	684.8107299804688	-621.759765625	-895.1800537109375	755.9320678710938	-681.3480224609375	-845.7531127929688	766.0902709960938	-639.9664916992188	-1097.569946289062	1364.19384765625	-312.6581115722656	-1145.838256835938	1299.9697265625	-273.2709350585938	-1188.983276367188	1035.1630859375	-236.5500030517578	-1215.33642578125	1021.776245117188	-296.3872375488281	-1103.963256835938	829.7097778320312	-205.5861511230469	-1193.050903320312	811.5623779296875	-211.5693359375	-1192.967529296875	980.6614379882812	-228.1870880126953	-1110.388061523438	670.2245483398438	-198.81787109375	-1110.16015625	737.5576171875	-175.3063507080078	-1177.32470703125	736.8610229492188	-197.5545349121094	-1062.9931640625	1526.804565429688	-363.3841247558594	-874.679443359375	1569.828735351562	-417.6684875488281	-941.312255859375	1561.820068359375	-309.1727905273438	-993.2203369140625	1534.795654296875	-506.4615173339844	-939.6875	882.883056640625	-597.5038452148438	-1012.923156738281	919.4747314453125	-282.0796508789062	-891.296875	917.5811767578125	-491.6619262695312	-988.8334350585938	461.9642333984375	-548.9298095703125	-948.4435424804688	617.0741577148438	-564.2628173828125	-1128.181030273438	48.20359420776367	-567.5821533203125	-1033.921264648438	313.8004150390625	-561.650634765625	-974.739501953125	42.78662872314453	-427.4360046386719	-1059.150024414062	46.57666397094727	-431.7328796386719	-1025.83740234375	43.82521820068359	-527.5097045898438	-1197.514526367188	46.70375823974609	-531.8751220703125	-980.4926147460938	509.1481018066406	-246.8682708740234	-1069.752563476562	752.63232421875	-241.0074615478516	-1115.200073242188	100.9457473754883	-320.326171875	-985.6787719726562	366.4800720214844	-252.9751892089844	-928.8931274414062	64.82524871826172	-260.7841186523438	-962.0204467773438	72.67565155029297	-325.9220275878906	-1029.251220703125	74.14678192138672	-254.8314361572266	-1136.961791992188	104.2339782714844	-387.7149353027344	-918.2214965820312	808.9242553710938	-689.4711303710938	-1127.536376953125	873.0897216796875	-265.2092590332031	
118	1.17	-1159.538818359375	962.511962890625	-432.1283874511719	-1093.248046875	961.1066284179688	-537.3549194335938	-1119.691040039062	1040.489379882812	-493.4670104980469	-914.677490234375	1190.026245117188	-387.5347900390625	-1128.015380859375	1147.145629882812	-497.9359436035156	-1073.679931640625	1373.13671875	-467.1980590820312	-941.6981201171875	1286.8779296875	-400.9421081542969	-1164.1357421875	1255.861083984375	-418.3891906738281	-1059.80419921875	1321.413696289062	-557.5908203125	-939.949951171875	1362.255615234375	-578.967041015625	-930.6768798828125	1238.93408203125	-645.3964233398438	-919.6157836914062	1030.744384765625	-679.208251953125	-1014.917846679688	1023.630676269531	-650.0535888671875	-862.47998046875	840.2996215820312	-617.895751953125	-907.01220703125	945.64697265625	-678.4658813476562	-855.8351440429688	685.0936889648438	-622.149658203125	-891.5473022460938	756.20556640625	-681.231689453125	-842.1480102539062	766.5133666992188	-639.9500122070312	-1094.460083007812	1363.935668945312	-311.8034973144531	-1143.056518554688	1299.786743164062	-272.7796020507812	-1188.209838867188	1035.219360351562	-237.3882141113281	-1214.056274414062	1022.193054199219	-297.5028991699219	-1104.916137695312	829.0032348632812	-206.4328308105469	-1194.055541992188	811.5634765625	-213.2314758300781	-1192.651245117188	980.751708984375	-229.2447814941406	-1112.610961914062	669.5427856445312	-200.2978668212891	-1112.064331054688	736.8076171875	-176.5196990966797	-1179.08837890625	736.8026123046875	-199.2690887451172	-1059.338012695312	1526.54638671875	-361.8532104492188	-870.8230590820312	1569.157592773438	-415.7373046875	-937.6282348632812	1560.931640625	-307.3058471679688	-989.3250732421875	1534.9306640625	-504.8056640625	-937.8262939453125	882.3916015625	-596.8486328125	-1009.68994140625	919.6301879882812	-281.3595275878906	-888.7149658203125	917.144287109375	-491.3080749511719	-987.99560546875	461.7128295898438	-548.8379516601562	-947.1552124023438	616.7413330078125	-563.8436279296875	-1128.210815429688	48.23805999755859	-567.5679321289062	-1033.68310546875	313.7421875	-561.6829223632812	-974.6151733398438	42.95061111450195	-427.5977172851562	-1059.284790039062	46.57746505737305	-431.890869140625	-1025.807250976562	43.75510025024414	-527.6098022460938	-1197.52734375	46.72095108032227	-531.8489990234375	-974.95166015625	510.4678039550781	-245.2817993164062	-1066.073364257812	753.4492797851562	-239.5884704589844	-1102.746826171875	99.17410278320312	-315.7790832519531	-977.972412109375	367.3096923828125	-250.3459777832031	-916.196533203125	66.28369903564453	-254.8188018798828	-949.066162109375	73.14520263671875	-320.2518005371094	-1016.7900390625	74.35930633544922	-249.6033782958984	-1124.183227539062	101.3842468261719	-383.3792419433594	-915.1896362304688	809.1166381835938	-689.1614379882812	-1124.139038085938	873.6846923828125	-263.6558227539062	
